<?xml version="1.0" encoding="UTF-8"?>
<svg id="_Слой_2" data-name="Слой 2" xmlns="http://www.w3.org/2000/svg" viewBox="0 0 87.93 124.34">
  <defs>
    <style>
      .cls-1 {
        stroke-width: .62px;
      }

      .cls-1, .cls-2 {
        fill: none;
        stroke: #8af3e5;
        stroke-linecap: round;
        stroke-linejoin: round;
      }

      .cls-2 {
        stroke-width: 1.25px;
      }

      .cls-3 {
        fill: #8af3e5;
      }
    </style>
  </defs>
  <g id="OBJECTS">
    <g>
      <path class="cls-3" d="M53.26,116.3s-1.12-7.3-2.8-18.24c-.42-2.74-.87-5.7-1.36-8.84-.46-3.14-1.14-6.41-1.74-9.81-.62-3.4-1.27-6.91-1.92-10.48-.33-1.79-.66-3.58-.99-5.39-.36-1.8-.77-3.6-1.15-5.4-.77-3.6-1.55-7.21-2.31-10.76-.4-1.77-.73-3.54-1.17-5.27-.43-1.73-.85-3.43-1.27-5.11-.84-3.35-1.64-6.6-2.41-9.67-.87-3.05-1.69-5.93-2.45-8.59-.72-2.67-1.52-5.08-2.21-7.21-.7-2.13-1.26-4.01-1.85-5.51-.56-1.51-.98-2.71-1.29-3.51-.32-.79-.49-1.22-.49-1.22v-.02c-.07-.17,0-.36,.17-.43,.17-.07,.35,.01,.42,.18,0,0,.18,.43,.52,1.23,.33,.81,.77,2,1.36,3.51,.61,1.5,1.2,3.38,1.94,5.5,.73,2.13,1.57,4.53,2.33,7.2,.8,2.65,1.67,5.53,2.59,8.57,.82,3.07,1.68,6.31,2.57,9.65,.44,1.67,.9,3.38,1.35,5.1,.47,1.72,.83,3.49,1.25,5.26,.82,3.54,1.65,7.14,2.49,10.75,.41,1.8,.85,3.6,1.23,5.4,.36,1.8,.72,3.6,1.07,5.39,.71,3.57,1.41,7.08,2.09,10.48,.65,3.4,1.39,6.68,1.9,9.81,.53,3.13,1.03,6.09,1.49,8.82,1.85,10.92,3.08,18.2,3.08,18.2,.12,.68-.34,1.32-1.02,1.44-.68,.12-1.32-.34-1.44-1.02,0,0,0-.02,0-.02Z"/>
      <path class="cls-2" d="M50.9,93.34s-7.98,24.44-21.54,29.19c-13.56,4.75-22.17-5.92-22.59-10.31-.43-4.38,11.36-5.14,12.02-8.36,.66-3.23-11.56-6.86-15.73-12.55-4.17-5.69-2.11-21.15-.32-23.04,1.79-1.89,12.71,6.57,18.28,7.81,5.57,1.24,8.34-4.96,5.48-8.27-2.86-3.3-12.8-3.2-17.2-6.37-4.4-3.17-2.2-26.62-.04-30.46,2.16-3.84,10.01,10.56,15.2,10.48,3.92-.06,2.96-6.51-1.14-11.24-4.1-4.73-8.72-10.47-4.57-15.74C22.91,9.22,27.32,2.2,27.79,.62c0,0,19.12,10.42,21.97,16.42,2.85,5.99-2.75,13.12-2.02,18.34,.73,5.22,4.57,4.5,6.2,2.34,1.63-2.16,2.56-11.47,4.09-11.32,1.53,.16,14.54,9.96,12.26,17.76-2.28,7.79-12,9.13-12.39,14.07-.4,4.93,6.42,4.91,10.14,.64,3.71-4.27,3.35-10.1,5.89-9.75,2.54,.35,13.96,16.55,11.49,22.24-2.47,5.69-11.72,5.45-16.56,5.69-4.84,.24-9.34,5.53-6.61,9.33,2.72,3.8,10.54,4.26,14.95-.36,4.41-4.62,8.64-5.18,9.61-4.11,.97,1.07,1.12,21.71-5.04,28.41-6.15,6.69-26.92-7.43-30.86-16.98Z"/>
      <path class="cls-1" d="M47.52,75.11s-26.26,14.39-46.61,2.45"/>
      <path class="cls-1" d="M47.75,79.08s-14.23,19.46-39.05,17.07"/>
      <path class="cls-1" d="M49.5,83.5s16.6-6.82,32.79-23.83"/>
      <path class="cls-1" d="M48.73,81.53s20.76-13.71,28.12-29.94"/>
      <path class="cls-1" d="M49.73,86.55s14.94,13.4,35.81,14.86"/>
      <path class="cls-1" d="M50.34,89.68s19.3,18.29,33.59,16.54"/>
      <path class="cls-1" d="M49.66,88.81s-13.94,22.37-37.49,31.16"/>
      <path class="cls-1" d="M46.35,69.18s-22.24-5.7-39.56-21.94"/>
      <path class="cls-1" d="M45.48,64.68S18.69,51.32,7.8,36.33"/>
      <path class="cls-1" d="M44.95,60.93s11.66-6.95,20.91-27.98"/>
      <path class="cls-1" d="M39.84,39.79s8.69-12.78,9.47-23.46"/>
      <path class="cls-1" d="M38.7,35.13s6.2-12.55,4.25-25.09"/>
      <path class="cls-1" d="M41.03,44.2s-7.97-3.11-15.34-10.41"/>
      <path class="cls-1" d="M39.01,36.56S22.72,26.49,20.3,12.79"/>
    </g>
  </g>
</svg>