<?xml version="1.0" encoding="UTF-8"?>
<svg id="_Слой_2" data-name="Слой 2" xmlns="http://www.w3.org/2000/svg" viewBox="0 0 86.48 115.72">
  <defs>
    <style>
      .cls-1 {
        fill: none;
        stroke: #8af3e5;
        stroke-linecap: round;
        stroke-linejoin: round;
        stroke-width: 1.25px;
      }

      .cls-2 {
        fill: #8af3e5;
      }
    </style>
  </defs>
  <g id="OBJECTS">
    <g>
      <path class="cls-2" d="M2.14,.38s1.53,1.6,4.21,4.39c1.32,1.42,3,3.05,4.8,5.08,1.8,2.02,3.83,4.31,6.05,6.8,2.2,2.5,4.46,5.31,6.92,8.22,.61,.73,1.23,1.47,1.85,2.23,.61,.77,1.22,1.54,1.84,2.33,1.24,1.57,2.51,3.17,3.79,4.8,1.3,1.62,2.58,3.3,3.86,5.01,1.29,1.71,2.59,3.43,3.9,5.18,2.62,3.49,5.16,7.11,7.77,10.69,2.54,3.63,5.08,7.25,7.54,10.85,2.42,3.62,4.86,7.15,7.11,10.64,2.28,3.47,4.47,6.83,6.49,10.05,2.06,3.2,3.94,6.26,5.69,9.08,6.98,11.3,11.31,19.02,11.31,19.02,.09,.16,.03,.36-.12,.45-.16,.09-.35,.03-.44-.12,0,0-4.43-7.65-11.54-18.84-1.79-2.79-3.71-5.83-5.8-9-2.07-3.19-4.29-6.52-6.61-9.95-2.29-3.45-4.77-6.94-7.23-10.53-2.5-3.56-5.08-7.14-7.66-10.73-2.65-3.54-5.23-7.12-7.89-10.56-1.33-1.72-2.65-3.42-3.95-5.11-1.29-1.69-2.59-3.35-3.91-4.94-1.3-1.61-2.59-3.19-3.84-4.73-.63-.77-1.25-1.54-1.86-2.29-.63-.74-1.26-1.47-1.87-2.19-2.48-2.87-4.77-5.63-6.98-8.08-2.22-2.44-4.26-4.67-6.07-6.65-1.8-1.98-3.51-3.61-4.85-5.01C1.91,3.7,.36,2.12,.36,2.12-.12,1.63-.12,.84,.37,.36c.49-.48,1.28-.48,1.76,.01,0,0,.01,.01,.01,.01Z"/>
      <path class="cls-1" d="M31.87,58.76s-1.5,3.48-3.23,7.36c7.04,9.95,14.67,18.06,19.9,23.45,3.22,3.32,6.25,6.19,9.1,8.71l3.31-8.19s-.08,5.61-.23,10.84c15.46,12.86,24.43,14.18,24.43,14.18,0,0,2.21-8.2-1.15-22.61-3.49-.88-6.69-1.73-6.69-1.73l6.09-.68c-1.82-6.88-4.88-15.02-9.93-24.25-5.22-1.29-11.03-2.83-11.03-2.83l8.86-.98c-1.54-2.61-3.22-5.29-5.09-8.06-8.28-12.26-15.67-21.14-22.37-27.5-4.25-.55-8.05-1.08-8.05-1.08l5.46-1.28C29.22,13.54,19.5,11.15,10.98,11.45c-2.15,19.35,6.09,37.62,16,52.27l4.89-4.96Z"/>
      <path class="cls-2" d="M25.13,27.5s0,.29-.05,.82c-.03,.53-.11,1.28-.21,2.17-.04,.45-.13,.93-.2,1.44-.08,.51-.14,1.05-.26,1.6-.23,1.1-.42,2.28-.73,3.43-.14,.58-.29,1.16-.43,1.73-.14,.57-.34,1.12-.5,1.65-.17,.53-.33,1.05-.48,1.54-.14,.49-.32,.94-.49,1.36-.65,1.66-1.08,2.77-1.08,2.77,0,0,.38-1.13,.94-2.82,.14-.42,.3-.88,.42-1.38,.13-.49,.26-1.01,.4-1.55,.13-.54,.3-1.09,.41-1.66,.11-.57,.23-1.15,.35-1.74,.26-1.16,.39-2.34,.56-3.43,.09-.55,.12-1.08,.18-1.59,.05-.51,.11-.98,.13-1.42,.06-.88,.1-1.62,.11-2.13,.02-.51,.01-.81,.01-.81,0-.26,.2-.47,.46-.48,.26,0,.47,.2,.48,.46v.04Z"/>
      <path class="cls-2" d="M33.82,38.21s-.03,.32-.12,.9c-.07,.58-.23,1.38-.41,2.35-.09,.48-.22,1-.34,1.55-.13,.55-.24,1.13-.41,1.72-.16,.59-.33,1.2-.5,1.83-.16,.62-.38,1.24-.58,1.86-.2,.62-.41,1.24-.61,1.85-.21,.61-.46,1.19-.67,1.76-.22,.57-.44,1.12-.64,1.64-.19,.53-.43,1-.63,1.45-.82,1.77-1.37,2.96-1.37,2.96,0,0,.5-1.2,1.24-3.01,.18-.45,.4-.93,.57-1.47,.18-.53,.37-1.09,.56-1.67,.19-.58,.41-1.17,.59-1.78,.17-.62,.35-1.24,.52-1.87,.17-.63,.36-1.25,.49-1.87,.14-.62,.28-1.24,.41-1.83,.15-.59,.23-1.17,.33-1.72,.09-.55,.2-1.06,.27-1.54,.13-.96,.25-1.76,.3-2.32,.06-.55,.08-.88,.08-.88,.01-.26,.23-.46,.49-.44,.26,.01,.46,.23,.44,.49,0,0,0,.01,0,.02v.02Z"/>
      <path class="cls-2" d="M45.22,53.24s-.03,.32-.12,.9c-.07,.58-.23,1.38-.41,2.35-.09,.48-.22,1-.34,1.55-.13,.55-.24,1.13-.41,1.72-.16,.59-.33,1.2-.5,1.83-.16,.62-.38,1.24-.58,1.86-.2,.62-.41,1.24-.61,1.85-.21,.61-.46,1.19-.67,1.76-.22,.57-.44,1.12-.64,1.64-.19,.53-.43,1-.63,1.45-.82,1.77-1.37,2.96-1.37,2.96,0,0,.5-1.2,1.24-3.01,.18-.45,.4-.93,.57-1.47,.18-.53,.37-1.09,.56-1.67,.19-.58,.41-1.17,.59-1.78,.17-.62,.35-1.24,.52-1.87,.17-.63,.36-1.25,.49-1.87,.14-.62,.28-1.24,.41-1.83,.15-.59,.23-1.17,.33-1.72,.09-.55,.2-1.06,.27-1.54,.13-.96,.25-1.76,.29-2.32,.06-.55,.08-.88,.08-.88,.01-.26,.23-.46,.49-.44,.26,.01,.46,.23,.44,.49,0,0,0,.01,0,.02v.02Z"/>
      <path class="cls-2" d="M55.36,67.92s-.02,.29-.09,.82c-.06,.53-.18,1.27-.33,2.15-.07,.44-.18,.91-.28,1.42-.11,.5-.2,1.03-.34,1.57-.28,1.08-.54,2.24-.91,3.38-.17,.57-.35,1.14-.52,1.7-.17,.56-.39,1.09-.58,1.62-.19,.52-.38,1.03-.56,1.51-.16,.48-.37,.92-.55,1.33-.72,1.62-1.2,2.71-1.2,2.71,0,0,.43-1.11,1.07-2.76,.16-.41,.35-.86,.48-1.35,.15-.48,.31-1,.48-1.52,.16-.53,.35-1.07,.5-1.63,.14-.56,.29-1.14,.43-1.71,.31-1.14,.51-2.3,.74-3.38,.12-.54,.18-1.07,.26-1.57,.07-.5,.16-.97,.21-1.41,.1-.88,.19-1.61,.22-2.11,.04-.5,.05-.8,.05-.8,0-.26,.22-.46,.48-.45,.26,0,.46,.22,.45,.48,0,0,0,.01,0,.02v.02Z"/>
      <path class="cls-2" d="M67.96,86.66s-.02,.22-.06,.61c-.04,.39-.13,.94-.23,1.59-.05,.33-.13,.68-.2,1.05-.08,.37-.14,.76-.24,1.16-.2,.8-.38,1.66-.65,2.49-.25,.84-.5,1.68-.79,2.45-.28,.77-.52,1.5-.8,2.09-.52,1.2-.87,2-.87,2,0,0,.29-.82,.74-2.05,.24-.61,.43-1.35,.66-2.13,.24-.78,.44-1.62,.62-2.47,.21-.84,.33-1.7,.48-2.5,.08-.4,.11-.79,.16-1.16,.04-.37,.1-.72,.12-1.04,.06-.64,.11-1.18,.12-1.55,.01-.38,.02-.59,.02-.59v-.02c.01-.26,.23-.46,.49-.45,.26,.01,.46,.23,.45,.49,0,.01,0,.02,0,.03Z"/>
      <path class="cls-2" d="M17.5,18.21s0,.23,0,.62c0,.4-.04,.97-.08,1.64-.01,.34-.06,.7-.1,1.09-.04,.38-.07,.79-.13,1.21-.13,.83-.22,1.73-.42,2.6-.09,.44-.17,.88-.26,1.31-.07,.43-.21,.85-.31,1.26-.22,.81-.38,1.58-.62,2.2-.43,1.27-.71,2.11-.71,2.11,0,0,.23-.86,.57-2.15,.19-.64,.3-1.41,.47-2.23,.07-.41,.18-.83,.22-1.26,.06-.43,.11-.87,.17-1.31,.14-.88,.17-1.77,.24-2.59,.04-.41,.03-.82,.05-1.19,0-.38,.03-.74,.03-1.07,0-.66,0-1.21-.03-1.59-.02-.38-.03-.6-.03-.6v-.02c-.01-.26,.18-.48,.44-.49,.26-.01,.48,.18,.49,.44,0,0,0,.02,0,.03Z"/>
      <path class="cls-2" d="M27.28,29.47s.28,.09,.75,.22c.47,.14,1.17,.31,2,.51,.42,.11,.88,.18,1.36,.29,.48,.09,.99,.22,1.52,.29,1.07,.15,2.2,.38,3.35,.47,.57,.06,1.15,.12,1.71,.18,.56,.07,1.12,.06,1.66,.09,.54,.02,1.06,.05,1.56,.07,.5,.03,.96,.02,1.4,0,1.73-.04,2.89-.07,2.89-.07,0,0-1.15,.09-2.88,.22-.43,.03-.9,.07-1.4,.06-.5,0-1.02,0-1.57,.01-.54,0-1.11,.03-1.68-.01-.57-.03-1.15-.06-1.73-.09-1.16-.03-2.31-.2-3.4-.3-.54-.05-1.06-.15-1.56-.22-.49-.08-.96-.13-1.39-.22-.86-.16-1.58-.3-2.08-.42-.51-.11-.78-.19-.78-.19h-.02c-.25-.07-.39-.33-.32-.58,.07-.25,.33-.39,.58-.32,0,0,.02,0,.02,0Z"/>
      <path class="cls-2" d="M35.35,40.11s.31,.1,.83,.25c.52,.16,1.28,.35,2.2,.58,.46,.12,.96,.21,1.49,.33,.53,.1,1.09,.25,1.67,.33,1.17,.18,2.41,.43,3.67,.54,.63,.07,1.26,.14,1.88,.21,.62,.08,1.23,.08,1.82,.12,.59,.03,1.17,.06,1.71,.09,.54,.04,1.06,.03,1.53,.02,1.9-.03,3.17-.05,3.17-.05,0,0-1.27,.08-3.17,.2-.48,.03-.99,.07-1.54,.05-.55,0-1.12,0-1.72,0-.6-.01-1.21,.02-1.84-.03-.62-.04-1.26-.08-1.9-.12-1.27-.05-2.53-.25-3.72-.38-.6-.06-1.16-.18-1.71-.26-.54-.09-1.06-.16-1.52-.26-.94-.19-1.72-.35-2.27-.49-.55-.13-.85-.22-.85-.22h-.02c-.25-.08-.39-.34-.32-.59,.07-.25,.33-.39,.58-.32,0,0,.01,0,.02,0Z"/>
      <path class="cls-2" d="M46.36,54.87s.31,.13,.85,.31c.54,.2,1.32,.45,2.27,.74,.47,.16,.99,.28,1.54,.44,.55,.14,1.13,.32,1.73,.46,.61,.14,1.23,.28,1.87,.42,.64,.16,1.29,.28,1.94,.38,.65,.11,1.31,.22,1.95,.33,.64,.13,1.29,.16,1.9,.24,.62,.07,1.22,.13,1.79,.2,.57,.08,1.11,.1,1.61,.12,2,.08,3.33,.13,3.33,.13,0,0-1.33,0-3.33,.01-.5,0-1.04,0-1.61-.05-.57-.04-1.18-.08-1.8-.12-.62-.05-1.27-.06-1.92-.16-.65-.08-1.32-.17-1.98-.25-.67-.08-1.33-.17-1.97-.3-.65-.12-1.29-.23-1.9-.34-.62-.11-1.21-.26-1.77-.38-.56-.13-1.1-.24-1.58-.37-.97-.26-1.78-.47-2.35-.66-.57-.17-.88-.28-.88-.28h-.02c-.24-.09-.37-.36-.28-.6,.09-.24,.35-.37,.6-.28,0,0,.01,0,.02,0Z"/>
      <path class="cls-2" d="M57.5,70.61s.26,.1,.72,.27c.45,.17,1.11,.39,1.91,.64,.4,.14,.84,.25,1.3,.38,.46,.12,.95,.28,1.46,.4,1.03,.22,2.11,.53,3.22,.7,.55,.1,1.1,.2,1.65,.3,.54,.11,1.09,.15,1.61,.22,.52,.06,1.03,.12,1.51,.18,.48,.07,.94,.1,1.36,.11,1.69,.08,2.81,.13,2.81,.13,0,0-1.13,0-2.82,.01-.42,0-.88,0-1.37-.04-.48-.03-.99-.07-1.52-.1-.53-.04-1.08-.05-1.63-.14-.55-.07-1.11-.14-1.67-.21-1.13-.11-2.23-.37-3.28-.54-.52-.09-1.02-.22-1.5-.33-.47-.11-.93-.2-1.34-.32-.82-.22-1.51-.4-1.99-.55-.47-.15-.75-.24-.75-.24-.25-.08-.38-.34-.3-.59,.08-.25,.34-.38,.59-.3,0,0,.01,0,.02,0h.02Z"/>
      <path class="cls-2" d="M68.84,87.83s.18,.03,.49,.08c.3,.05,.75,.1,1.29,.16,.54,.04,1.18,.1,1.86,.12,.68,.02,1.41,.05,2.14,.02,.73,0,1.46-.03,2.14-.09,.68-.05,1.33-.09,1.87-.18,1.09-.15,1.82-.25,1.82-.25,0,0-.72,.16-1.8,.39-.54,.13-1.18,.22-1.86,.33-.68,.12-1.42,.2-2.15,.27-.73,.09-1.47,.11-2.17,.15-.69,.03-1.34,.02-1.9,.02-.56-.02-1.02-.03-1.36-.06-.33-.03-.51-.04-.51-.04-.26-.02-.45-.25-.43-.5,.02-.26,.25-.45,.5-.43,.01,0,.02,0,.04,0h.02Z"/>
      <path class="cls-2" d="M19.07,19.84s.21,.06,.57,.16c.36,.11,.89,.23,1.52,.38,.32,.08,.67,.13,1.03,.21,.37,.07,.75,.16,1.16,.21,.81,.11,1.67,.27,2.54,.34,.44,.04,.87,.08,1.3,.12,.43,.05,.85,.04,1.26,.06,.82,.02,1.59,.08,2.25,.04,1.32-.04,2.2-.07,2.2-.07,0,0-.88,.08-2.19,.21-.66,.09-1.43,.08-2.26,.11-.41,0-.84,.04-1.28,.02-.43-.01-.88-.03-1.32-.04-.89,0-1.77-.11-2.59-.17-.41-.02-.81-.09-1.19-.14-.38-.05-.74-.08-1.07-.14-.66-.11-1.21-.2-1.59-.28-.38-.08-.6-.13-.6-.13-.25-.05-.41-.3-.36-.56,.05-.25,.3-.41,.56-.36,0,0,.02,0,.03,0h.02Z"/>
    </g>
  </g>
</svg>