<?xml version="1.0" encoding="UTF-8"?>
<svg id="_Слой_2" data-name="Слой 2" xmlns="http://www.w3.org/2000/svg" xmlns:xlink="http://www.w3.org/1999/xlink" viewBox="0 0 305.82 442.98">
  <defs>
    <style>
      .cls-1 {
        fill: #003c52;
        opacity: .4;
      }

      .cls-2, .cls-3 {
        opacity: .6;
      }

      .cls-4 {
        stroke-width: .66px;
      }

      .cls-4, .cls-5, .cls-6, .cls-7, .cls-8, .cls-9, .cls-10, .cls-11, .cls-12, .cls-13, .cls-14, .cls-3 {
        fill: none;
      }

      .cls-4, .cls-5, .cls-6, .cls-7, .cls-8, .cls-9, .cls-10, .cls-11, .cls-12, .cls-14, .cls-3 {
        stroke: #8af3e5;
        stroke-linecap: round;
        stroke-linejoin: round;
      }

      .cls-15 {
        opacity: .28;
      }

      .cls-5 {
        stroke-width: .22px;
      }

      .cls-6 {
        stroke-width: .31px;
      }

      .cls-7 {
        stroke-width: .44px;
      }

      .cls-8 {
        stroke-width: .21px;
      }

      .cls-9, .cls-3 {
        stroke-width: .38px;
      }

      .cls-10 {
        stroke-width: .29px;
      }

      .cls-11 {
        stroke-width: .19px;
      }

      .cls-12 {
        stroke-width: .58px;
      }

      .cls-16 {
        clip-path: url(#clippath);
      }

      .cls-17 {
        fill: #8af3e5;
      }

      .cls-18 {
        fill: #327c90;
      }

      .cls-14 {
        stroke-width: .15px;
      }
    </style>
    <clipPath id="clippath">
      <rect class="cls-13" x="66.23" y="83.09" width="169" height="295"/>
    </clipPath>
  </defs>
  <g id="OBJECTS">
    <g class="cls-16">
      <rect class="cls-18" x="66.23" y="83.09" width="169" height="295"/>
      <path class="cls-1" d="M224.74,78.44c1.75,22.88-18.8,44.1-33.16,58.39-14.36,14.29-.58,40.87,12.62,59.82,13.2,18.95,8.05,48.27-12.62,72.34-20.66,24.08-23.14,62.04,.86,86.08,24,24.04,66,41.99,74.54,87.9l31.49-364.62-73.73,.08Z"/>
      <path class="cls-1" d="M230.7,76.92c3.24,21.94-16.33,42.25-30.05,55.93-13.71,13.68,2.02,39.19,16.68,57.39,14.66,18.2,11.28,46.3-8.23,69.35-19.51,23.05-19.61,59.44,6.37,82.55,25.98,23.1,69.92,40.4,81.56,84.43l8.78-349.58-75.12-.07Z"/>
      <g>
        <g>
          <path class="cls-17" d="M173.7,79.6c5.66,7.02,11.66,14.77,16.79,22.16,5.25,7.63,10.45,15.37,14.24,23.85,.05,.12-.14,.2-.19,.07-6.96-14.58-17.11-27.55-27.05-40.21,0,0-4.39-5.38-4.39-5.38-.32-.37,.28-.89,.59-.49h0Z"/>
          <path class="cls-9" d="M180.26,88.4s-12.22-5.4-19.52-2.61c-7.3,2.79-6.93,9.01-5.5,10.57,1.43,1.56,6.54-1.96,7.99-1.12,1.45,.84-2.23,5.93-1.87,9.11,.37,3.18,6.87,7.55,8.3,7.59,1.42,.04,2.81-6.2,4.64-8.38,1.83-2.18,5.24-1.05,5.28,.93,.03,1.99-4.09,5.13-4.73,7.57-.65,2.44,8.83,9.36,11.13,9.92,2.29,.56,.25-6.63,2.4-8.27,1.63-1.23,3.6,1.17,3.64,4.02,.05,2.85,.25,6.19,3.88,6.58,3.63,.39,8.01,1.26,8.78,1.62,0,0,4.04-9.5,3.01-12.36-1.02-2.86-5.93-3.39-7.54-5.32-1.61-1.93,.23-2.92,1.69-2.74,1.46,.18,5.25,2.91,5.82,2.37,.57-.54,2.32-7.89-1.46-9.69-3.79-1.8-8.27,.87-10.23-.61-1.97-1.48,.84-3.65,3.92-3.45,3.09,.2,5.07,2.21,5.98,1.28,.91-.93-.32-9.84-3.42-10.9-3.1-1.06-6.81,1.97-8.88,3.44-2.07,1.47-5.86,1.19-6.13-.92-.27-2.1,2.77-4.75,6.27-4.66s5.44-1.08,5.45-1.73c0-.66-7.48-7.42-12.46-7.63-4.97-.21-8.33,11.02-6.46,15.39Z"/>
          <path class="cls-11" d="M185.54,95.41s-16.04,3.71-20.03,14.1"/>
          <path class="cls-11" d="M184.18,94.04s-12.96-1.78-22.27,6.93"/>
          <path class="cls-11" d="M183.28,92.04s9.31-3.09,22.17-2.73"/>
          <path class="cls-11" d="M183.69,92.93s13.54-2.18,22.49,.75"/>
          <path class="cls-11" d="M182.26,90.98s1.23-9.13,9.26-16.28"/>
          <path class="cls-11" d="M181.37,89.77s1.23-12.12,7.74-16.12"/>
          <path class="cls-11" d="M181.41,90.27s-13.91-2.82-26.78,1.85"/>
          <path class="cls-11" d="M187.23,97.71s-7.04,8.96-8.21,19.78"/>
          <path class="cls-11" d="M188.52,99.45s-6.11,12.9-5.1,21.26"/>
          <path class="cls-11" d="M189.67,100.84s7.33-1.46,18.82,2.42"/>
          <path class="cls-11" d="M195.31,109.35s8.24,1.38,12.47,4.6"/>
          <path class="cls-11" d="M196.55,111.23s7.14,2.1,10.93,6.8"/>
          <path class="cls-11" d="M194.18,107.53s-2.13,3.56-2.49,8.29"/>
          <path class="cls-11" d="M196.15,110.66s-3,8.48,1.01,13.71"/>
        </g>
        <g>
          <path class="cls-17" d="M209.39,394.7c-3.19-8.44-6.48-17.67-9.05-26.29-2.61-8.88-5.14-17.86-6.1-27.1-.01-.13,.2-.15,.2-.01,2.07,16.02,7.68,31.51,13.17,46.64,0,0,2.49,6.48,2.49,6.48,.18,.45-.53,.77-.72,.28h0Z"/>
          <path class="cls-9" d="M205.9,384.31s9.92,8.94,17.73,8.56c7.81-.37,9.39-6.4,8.52-8.33-.87-1.93-6.83-.17-7.95-1.42-1.12-1.25,3.97-4.93,4.61-8.07,.64-3.14-4.17-9.32-5.52-9.8-1.34-.48-4.6,5.01-7.03,6.51-2.42,1.5-5.31-.63-4.72-2.53,.59-1.9,5.48-3.6,6.86-5.72,1.37-2.11-5.48-11.65-7.48-12.89-2-1.25-2.3,6.22-4.86,7.1-1.93,.66-3.05-2.23-2.21-4.96,.84-2.72,1.69-5.96-1.64-7.46-3.33-1.5-7.22-3.69-7.84-4.28,0,0-6.8,7.77-6.71,10.81,.08,3.04,4.58,5.07,5.51,7.4,.93,2.34-1.13,2.71-2.46,2.08-1.33-.63-4.08-4.4-4.79-4.07-.71,.33-4.67,6.77-1.63,9.67,3.04,2.9,8.12,1.75,9.53,3.77,1.41,2.02-1.93,3.21-4.8,2.05-2.87-1.15-4.13-3.68-5.29-3.08-1.16,.59-2.76,9.45-.15,11.43,2.61,1.97,7.08,.25,9.51-.5,2.43-.75,5.93,.7,5.53,2.78-.4,2.08-4.11,3.66-7.41,2.48-3.3-1.18-5.51-.67-5.72-.05-.21,.62,4.8,9.38,9.46,11.13,4.66,1.75,11.35-7.88,10.93-12.61Z"/>
          <path class="cls-11" d="M203.06,376s16.4,1.47,23.43-7.15"/>
          <path class="cls-11" d="M203.93,377.72s11.76,5.73,23.32,.36"/>
          <path class="cls-11" d="M204.16,379.9s-9.8,.03-21.92-4.32"/>
          <path class="cls-11" d="M204.05,378.93s-13.54-2.15-21.14-7.72"/>
          <path class="cls-11" d="M204.8,381.23s-4.02,8.29-13.87,12.58"/>
          <path class="cls-11" d="M205.27,382.66s-4.94,11.13-12.37,12.9"/>
          <path class="cls-11" d="M205.39,382.17s12.34,7.01,26.03,6.59"/>
          <path class="cls-11" d="M202.18,373.29s9.48-6.32,13.97-16.24"/>
          <path class="cls-11" d="M201.5,371.23s9.83-10.36,11.47-18.61"/>
          <path class="cls-11" d="M200.83,369.55s-7.42-.89-17.13-8.16"/>
          <path class="cls-11" d="M198.13,359.71s-7.4-3.88-10.41-8.26"/>
          <path class="cls-11" d="M197.54,357.53s-6.13-4.22-8.26-9.87"/>
          <path class="cls-11" d="M198.63,361.78s3.14-2.72,4.95-7.1"/>
          <path class="cls-11" d="M197.74,358.19s5.5-7.12,3.31-13.34"/>
        </g>
        <g class="cls-15">
          <path class="cls-17" d="M244.94,250.51c-7.08-7.1-14.92-14.68-22.46-21.24-7.78-6.71-15.73-13.41-24.62-18.6-.1-.04-.02-.2,.07-.14,15.48,9.2,28.87,21.82,41.92,34.13,0,0,5.52,5.42,5.52,5.42,.28,.27-.15,.73-.44,.43h0Z"/>
          <path class="cls-6" d="M236.44,241.74s4.69,14.21,.86,22.07c-3.83,7.86-10.65,6.79-12.22,5.03-1.57-1.76,2.84-7.1,2.06-8.81-.78-1.71-6.76,1.87-10.23,1.13-3.47-.75-7.61-8.47-7.51-10.06,.1-1.6,7.12-2.49,9.72-4.31,2.6-1.82,1.7-5.74-.49-5.99-2.19-.25-6.08,4.02-8.83,4.49-2.75,.47-9.41-10.85-9.78-13.47-.38-2.62,7.34,.42,9.36-1.82,1.53-1.69-.92-4.14-4.05-4.49-3.14-.35-6.8-.93-6.85-5.03-.05-4.1-.56-9.08-.88-9.98,0,0,10.89-3.51,13.94-2.06,3.05,1.44,3.12,6.98,5.08,8.98,1.96,2,3.25,.05,3.2-1.6-.05-1.65-2.67-6.17-2.01-6.75,.65-.58,8.94-1.77,10.53,2.65,1.6,4.42-1.81,9.14-.38,11.49,1.43,2.35,4.11-.55,4.21-4.02,.1-3.47-1.91-5.9-.8-6.82,1.12-.92,10.82,1.4,11.67,4.97,.85,3.57-2.88,7.39-4.71,9.55-1.83,2.16-1.91,6.41,.38,6.94,2.29,.52,5.53-2.59,5.79-6.51,.26-3.92,1.75-5.96,2.48-5.91,.73,.06,7.41,9.14,7.12,14.71-.28,5.58-13.01,8.15-17.63,5.59Z"/>
          <path class="cls-14" d="M229.26,235.1s-5.75,17.53-17.62,20.88"/>
          <path class="cls-14" d="M230.62,236.77s.62,14.66-9.94,24.14"/>
          <path class="cls-14" d="M232.73,237.98s4.37-10.07,5.3-24.48"/>
          <path class="cls-14" d="M231.79,237.43s3.8-14.89,1.5-25.2"/>
          <path class="cls-14" d="M233.8,239.23s10.2-.41,18.9-8.63"/>
          <path class="cls-14" d="M235.04,240.36s13.48-.1,18.57-6.95"/>
          <path class="cls-14" d="M234.5,240.26s1.67,15.83-4.81,29.72"/>
          <path class="cls-14" d="M226.89,232.98s-10.6,6.92-22.65,7.09"/>
          <path class="cls-14" d="M225.11,231.35s-14.86,5.47-23.97,3.46"/>
          <path class="cls-14" d="M223.7,229.92s2.37-8.03-.72-21.27"/>
          <path class="cls-14" d="M214.9,222.73s-.67-9.35-3.78-14.41"/>
          <path class="cls-14" d="M212.95,221.15s-1.58-8.19-6.37-12.91"/>
          <path class="cls-14" d="M216.78,224.18s-4.14,2.01-9.39,1.91"/>
          <path class="cls-14" d="M213.54,221.65s-9.66,2.46-15.01-2.57"/>
        </g>
        <g>
          <path class="cls-17" d="M242.56,142.49c-7.19,13.02-17.86,24.2-30.72,31.72-.11,.06-.22-.12-.1-.18,9.52-5.7,17.77-13.53,24.28-22.5,2.21-2.97,4.07-6.17,5.86-9.4,.22-.45,.94-.1,.68,.36h0Z"/>
          <path class="cls-10" d="M237.35,150.1s-8.69-2.87-20.01-2.03c0,0,6.71,4.75,20.01,2.03Z"/>
          <path class="cls-10" d="M233.99,154.57s-8.62-1.88-19.45,.03c0,0,6.89,3.86,19.45-.03Z"/>
          <path class="cls-10" d="M229.82,159.32s-8.24-1.98-18.62-.31c0,0,6.57,3.87,18.62,.31Z"/>
          <path class="cls-10" d="M225.54,163.8s-7.34-1.2-16.75,.53c0,0,5.75,2.76,16.75-.53Z"/>
          <path class="cls-10" d="M220.35,168.2s-6.72-1.13-15.34,.46c0,0,5.27,2.56,15.34-.46Z"/>
          <path class="cls-10" d="M215.3,171.91s-5.92-.99-13.52,.41c0,0,4.64,2.25,13.52-.41Z"/>
          <path class="cls-10" d="M211.91,174.06s-7.04,1.88-15.22,7.28c0,0,8.67-.79,15.22-7.28Z"/>
          <path class="cls-10" d="M237.36,150.33s-.99,11.4,2.09,22.33c0,0,3.22-9.83-2.09-22.33Z"/>
          <path class="cls-10" d="M233.68,155.06s-2.14,10.67-.44,21.39c0,0,4.07-8.93,.44-21.39Z"/>
          <path class="cls-10" d="M230.07,159.22s-3.64,10.02-3.6,20.68c0,0,5.22-8.03,3.6-20.68Z"/>
          <path class="cls-10" d="M225.34,164.02s-4.87,8.92-6.4,18.97c0,0,6.07-6.81,6.4-18.97Z"/>
          <path class="cls-10" d="M220.17,168.45s-4.44,7.23-5.82,15.39c0,0,5.52-5.52,5.82-15.39Z"/>
          <path class="cls-10" d="M214.9,172.25s-4.28,5.76-6.15,12.57c0,0,5.02-4.21,6.15-12.57Z"/>
        </g>
        <g>
          <g>
            <g>
              <path class="cls-12" d="M147.12,229.62c-1.72-1.81-1.65-4.66,.16-6.38,1.81-1.72,4.66-1.65,6.38,.16,1.72,1.81,1.65,4.66-.16,6.38-1.81,1.72-4.66,1.65-6.38-.16Z"/>
              <path class="cls-12" d="M143.77,232.81c-3.48-3.66-3.34-9.44,.32-12.92,3.66-3.48,9.44-3.34,12.92,.32,3.48,3.66,3.34,9.44-.32,12.92-3.66,3.48-9.44,3.34-12.92-.32Z"/>
              <g>
                <g>
                  <line class="cls-9" x1="158.55" y1="230.61" x2="154.62" y2="228.24"/>
                  <line class="cls-9" x1="154.08" y1="234.87" x2="151.91" y2="230.82"/>
                </g>
                <g>
                  <line class="cls-9" x1="142.23" y1="222.41" x2="146.16" y2="224.78"/>
                  <line class="cls-9" x1="146.7" y1="218.16" x2="148.87" y2="222.2"/>
                </g>
              </g>
              <g>
                <g>
                  <line class="cls-9" x1="154.49" y1="218.35" x2="152.12" y2="222.28"/>
                  <line class="cls-9" x1="158.74" y1="222.82" x2="154.7" y2="224.99"/>
                </g>
                <g>
                  <line class="cls-9" x1="146.29" y1="234.68" x2="148.66" y2="230.74"/>
                  <line class="cls-9" x1="142.03" y1="230.21" x2="146.08" y2="228.03"/>
                </g>
              </g>
            </g>
            <g>
              <path class="cls-9" d="M157.15,232.68l.28,.29c.24,.26,.23,.66-.02,.91h0c-.26,.24-.66,.23-.91-.02l-.27-.29"/>
              <path class="cls-9" d="M143.63,220.34l-.27-.29c-.24-.26-.23-.66,.02-.91h0c.26-.24,.66-.23,.91,.02l.27,.29"/>
            </g>
            <g>
              <path class="cls-9" d="M156.56,219.75l.29-.28c.26-.24,.66-.23,.91,.02h0c.24,.26,.23,.66-.02,.91l-.29,.28"/>
              <path class="cls-9" d="M144.22,233.27l-.29,.28c-.26,.24-.66,.23-.91-.02h0c-.24-.26-.23-.66,.02-.91l.29-.28"/>
            </g>
          </g>
          <g>
            <g>
              <path class="cls-9" d="M157.51,233.04s9.01-5.6,.31-12.71"/>
              <path class="cls-9" d="M156.56,233.95s-6.04,8.73-12.71-.32"/>
            </g>
            <g>
              <path class="cls-9" d="M144.22,219.07s6.03-8.73,12.71,.32"/>
              <path class="cls-9" d="M143.27,219.98s-9.01,5.6-.31,12.71"/>
            </g>
          </g>
        </g>
        <g class="cls-2">
          <path class="cls-17" d="M228.44,327.85c.08,.39-.46,.24-1.2-.35-.74-.59-1.41-1.38-1.48-1.78-.08-.39,.46-.24,1.2,.35,.74,.59,1.41,1.38,1.48,1.78Z"/>
          <path class="cls-17" d="M225.72,341.04c.08,.39-.46,.24-1.2-.35-.74-.59-1.41-1.38-1.48-1.78-.08-.39,.46-.24,1.2,.35,.74,.59,1.41,1.38,1.49,1.78Z"/>
          <path class="cls-17" d="M232.19,361.52c.08,.39-.46,.24-1.2-.35-.74-.59-1.41-1.38-1.49-1.78-.08-.39,.46-.24,1.2,.35,.74,.59,1.41,1.38,1.49,1.77Z"/>
          <path class="cls-17" d="M234.61,361.13c.08,.39-.46,.24-1.2-.35-.74-.59-1.41-1.38-1.49-1.77-.08-.4,.46-.24,1.2,.35s1.41,1.38,1.49,1.78Z"/>
          <path class="cls-17" d="M232.91,349c.08,.39-.46,.24-1.2-.35-.74-.59-1.41-1.38-1.49-1.78-.08-.39,.46-.24,1.2,.35,.74,.59,1.41,1.38,1.48,1.78Z"/>
          <path class="cls-17" d="M216.87,326.19c.08,.39-.28,.38-.81-.04-.53-.42-1.02-1.08-1.1-1.47-.08-.39,.28-.38,.81,.04,.53,.42,1.02,1.07,1.1,1.47Z"/>
          <path class="cls-17" d="M231.46,339.69c.08,.39-.29,.38-.81-.04-.53-.42-1.02-1.07-1.1-1.47-.08-.39,.28-.38,.81,.04,.53,.42,1.02,1.08,1.1,1.47Z"/>
          <path class="cls-17" d="M226.1,345.64c.08,.39-.28,.38-.81-.04-.53-.42-1.02-1.07-1.1-1.47-.08-.39,.29-.38,.81,.04,.53,.42,1.02,1.07,1.1,1.47Z"/>
          <path class="cls-17" d="M219.58,356.5c.08,.39-.28,.38-.81-.04-.53-.42-1.02-1.07-1.1-1.47-.08-.39,.29-.38,.81,.04,.53,.42,1.02,1.07,1.1,1.47Z"/>
          <path class="cls-17" d="M218.55,334.61c.08,.39-.28,.38-.81-.04-.53-.42-1.02-1.07-1.1-1.47-.08-.39,.29-.38,.81,.04,.53,.42,1.02,1.08,1.1,1.47Z"/>
          <path class="cls-17" d="M233.24,356.62c.08,.4-.29,.38-.81-.04-.53-.42-1.02-1.07-1.1-1.47-.08-.39,.28-.38,.81,.04,.53,.42,1.02,1.08,1.1,1.47Z"/>
          <path class="cls-17" d="M221.56,354.18c.08,.39-.28,.38-.81-.04-.53-.42-1.02-1.07-1.1-1.47-.08-.39,.28-.38,.81,.04,.53,.42,1.02,1.07,1.1,1.47Z"/>
          <path class="cls-17" d="M232.36,365.93c.08,.39-.28,.38-.81-.04-.53-.42-1.02-1.07-1.1-1.47-.08-.39,.28-.38,.81,.04,.53,.42,1.02,1.07,1.1,1.47Z"/>
          <path class="cls-17" d="M224.74,329.56c.09,.47-.51,.31-1.35-.35-.84-.67-1.59-1.58-1.69-2.05-.09-.47,.51-.31,1.35,.36,.84,.66,1.59,1.58,1.69,2.05Z"/>
          <path class="cls-17" d="M227.64,354.06c.09,.47-.51,.31-1.35-.36-.84-.66-1.6-1.58-1.69-2.05-.09-.47,.51-.31,1.35,.36,.84,.66,1.6,1.58,1.69,2.05Z"/>
          <path class="cls-17" d="M220.23,341.4c.09,.47-.51,.31-1.35-.35-.84-.66-1.6-1.58-1.69-2.05-.09-.47,.51-.31,1.35,.36,.84,.67,1.6,1.58,1.69,2.05Z"/>
          <path class="cls-17" d="M224.99,335.87c.09,.47-.51,.31-1.35-.35-.84-.67-1.59-1.58-1.69-2.05-.09-.47,.51-.31,1.35,.35,.84,.66,1.6,1.58,1.69,2.05Z"/>
          <path class="cls-17" d="M232.59,352.18c.09,.47-.51,.31-1.35-.36-.84-.66-1.6-1.58-1.69-2.05-.09-.47,.51-.31,1.35,.36,.84,.66,1.6,1.58,1.69,2.05Z"/>
          <path class="cls-17" d="M227.25,359.12c.09,.47-.51,.31-1.35-.36-.84-.66-1.6-1.58-1.69-2.05-.09-.47,.51-.31,1.35,.36,.84,.67,1.59,1.58,1.69,2.05Z"/>
          <path class="cls-17" d="M221.8,347.91c.09,.47-.51,.31-1.35-.36-.84-.66-1.6-1.58-1.69-2.05-.09-.47,.51-.31,1.35,.36,.84,.66,1.6,1.58,1.69,2.05Z"/>
          <path class="cls-17" d="M233.71,346.17c.09,.47-.51,.31-1.35-.36-.84-.66-1.59-1.58-1.69-2.05-.09-.47,.51-.31,1.35,.35,.84,.66,1.59,1.58,1.69,2.05Z"/>
        </g>
        <g>
          <g>
            <g>
              <g>
                <line class="cls-7" x1="210.93" y1="230.82" x2="209.6" y2="227.57"/>
                <line class="cls-7" x1="218.29" y1="248.74" x2="216.96" y2="245.49"/>
              </g>
              <g>
                <line class="cls-7" x1="206.61" y1="241.17" x2="203.36" y2="242.5"/>
                <line class="cls-7" x1="224.53" y1="233.8" x2="221.28" y2="235.14"/>
              </g>
            </g>
            <g>
              <g>
                <line class="cls-7" x1="206.63" y1="235.1" x2="203.39" y2="233.74"/>
                <line class="cls-7" x1="224.5" y1="242.56" x2="221.26" y2="241.21"/>
              </g>
              <g>
                <line class="cls-7" x1="210.89" y1="245.47" x2="209.54" y2="248.71"/>
                <line class="cls-7" x1="218.35" y1="227.59" x2="217" y2="230.83"/>
              </g>
            </g>
          </g>
          <g>
            <g>
              <path class="cls-4" d="M221.83,238.15c0,4.36-3.53,7.89-7.89,7.89s-7.89-3.53-7.89-7.89,3.53-7.89,7.89-7.89,7.89,3.53,7.89,7.89Z"/>
              <path class="cls-5" d="M214.88,234.66c0,1.31-1.07,2.38-2.38,2.38s-2.38-1.07-2.38-2.38,1.06-2.38,2.38-2.38,2.38,1.06,2.38,2.38Z"/>
              <path class="cls-5" d="M211.04,239.33c0,.57-.46,1.03-1.03,1.03s-1.03-.46-1.03-1.03,.46-1.03,1.03-1.03,1.03,.46,1.03,1.03Z"/>
            </g>
            <g>
              <g>
                <line class="cls-7" x1="213.94" y1="230.22" x2="213.94" y2="225.63"/>
                <line class="cls-7" x1="213.94" y1="250.68" x2="213.94" y2="246.08"/>
              </g>
              <g>
                <line class="cls-7" x1="206.02" y1="238.15" x2="201.42" y2="238.15"/>
                <line class="cls-7" x1="226.47" y1="238.15" x2="221.87" y2="238.15"/>
              </g>
            </g>
            <g>
              <g>
                <line class="cls-7" x1="208.34" y1="232.55" x2="205.09" y2="229.3"/>
                <line class="cls-7" x1="222.8" y1="247.01" x2="219.55" y2="243.76"/>
              </g>
              <g>
                <line class="cls-7" x1="208.34" y1="243.76" x2="205.09" y2="247.01"/>
                <line class="cls-7" x1="222.8" y1="229.3" x2="219.55" y2="232.55"/>
              </g>
            </g>
          </g>
        </g>
        <path class="cls-3" d="M194.3,158.84c0,2.61-2.11,4.72-4.72,4.72s-4.72-2.11-4.72-4.72,2.11-4.72,4.72-4.72,4.72,2.11,4.72,4.72Z"/>
        <path class="cls-9" d="M169.26,200.04c0,.69-.56,1.25-1.25,1.25s-1.25-.56-1.25-1.25,.56-1.25,1.25-1.25,1.25,.56,1.25,1.25Z"/>
        <path class="cls-9" d="M196.84,166.96c0,.69-.56,1.25-1.25,1.25s-1.25-.56-1.25-1.25,.56-1.25,1.25-1.25,1.25,.56,1.25,1.25Z"/>
        <path class="cls-3" d="M81.73,354.47c0,2.61-2.11,4.72-4.72,4.72s-4.72-2.11-4.72-4.72,2.11-4.72,4.72-4.72,4.72,2.11,4.72,4.72Z"/>
        <path class="cls-9" d="M84.27,362.58c0,.69-.56,1.25-1.25,1.25s-1.25-.56-1.25-1.25,.56-1.25,1.25-1.25,1.25,.56,1.25,1.25Z"/>
        <path class="cls-17" d="M190.96,244.45c-.2,.25-.56,.29-.81,.1-.25-.19-.29-.56-.1-.81,.2-.25,.56-.29,.81-.1,.25,.2,.3,.56,.1,.81Z"/>
        <path class="cls-17" d="M105.26,246.24c0,.32-.26,.58-.58,.58s-.58-.26-.58-.58,.26-.58,.58-.58,.58,.26,.58,.58Z"/>
        <path class="cls-17" d="M195.69,254.04c-.41,.53-1.17,.62-1.7,.21-.53-.41-.62-1.17-.21-1.7,.41-.53,1.17-.62,1.7-.21,.53,.41,.62,1.17,.21,1.7Z"/>
        <path class="cls-17" d="M97.54,241.65c0,.67-.54,1.21-1.21,1.21s-1.21-.54-1.21-1.21,.54-1.21,1.21-1.21,1.21,.54,1.21,1.21Z"/>
        <g>
          <path class="cls-17" d="M102.68,195.92c-3.53,14.15-9.66,27.5-16.45,40.35-.06,.11-.24,.02-.18-.1,5.02-9.66,9.45-19.65,12.94-29.97,1.13-3.45,2.13-6.93,2.94-10.46,.1-.48,.87-.34,.75,.17h0Z"/>
          <path class="cls-9" d="M92.21,213.19s-1.15,.17-2.45,.35c-1.46,3.46-2.35,6.77-2.91,9.02-.35,1.38-.61,2.64-.8,3.8l2.68-.46s-1.48,.89-2.88,1.7c-.86,6.14,.25,8.7,.25,8.7,0,0,2.51-.75,5.74-3.97-.33-1.06-.63-2.03-.63-2.03l1.17,1.49c1.51-1.59,3.14-3.72,4.74-6.54-.51-1.58-1.05-3.35-1.05-3.35l1.7,2.16c.43-.83,.86-1.7,1.28-2.64,1.87-4.16,2.99-7.54,3.57-10.32-.55-1.2-1.02-2.28-1.02-2.28l1.22,1.22c.81-4.86-.14-7.8-1.6-9.98-5.42,2.58-8.86,7.7-11.09,12.68l2.09,.47Z"/>
          <path class="cls-17" d="M99.31,206.35c-1.75,.94-3.64,1.54-5.57,1.85,1.91-.4,3.77-1.1,5.43-2.1,.16-.1,.31,.16,.14,.25h0Z"/>
          <path class="cls-17" d="M97.92,210.37c-1.97,.89-4.09,1.38-6.23,1.58,2.12-.29,4.21-.89,6.1-1.84,.17-.09,.3,.18,.12,.26h0Z"/>
          <path class="cls-17" d="M95.83,215.8c-1.97,.89-4.09,1.38-6.23,1.58,2.12-.29,4.21-.89,6.1-1.84,.17-.09,.3,.18,.12,.26h0Z"/>
          <path class="cls-17" d="M93.63,220.83c-1.79,.84-3.7,1.34-5.64,1.55,1.92-.31,3.81-.9,5.51-1.81,.17-.09,.3,.18,.13,.26h0Z"/>
          <path class="cls-17" d="M90.77,227.18c-1.32,.63-2.72,1.01-4.15,1.17,1.41-.26,2.79-.73,4.01-1.43,.17-.1,.31,.17,.13,.26h0Z"/>
          <path class="cls-17" d="M100.5,202.85c-1.28,.77-2.67,1.3-4.11,1.59,1.41-.38,2.77-1.01,3.95-1.83,.16-.11,.32,.14,.16,.24h0Z"/>
          <path class="cls-17" d="M99.14,207.24c.5,1.8,1.33,3.54,2.42,5.1-1.16-1.5-2.09-3.19-2.7-5.02-.06-.19,.24-.27,.28-.07h0Z"/>
          <path class="cls-17" d="M97.66,211.08c.53,1.99,1.43,3.91,2.61,5.62-1.26-1.66-2.25-3.53-2.89-5.55-.06-.19,.24-.27,.28-.07h0Z"/>
          <path class="cls-17" d="M95.59,216.36c.44,2.12,1.25,4.19,2.39,6.06-1.22-1.82-2.12-3.85-2.67-6-.05-.19,.26-.25,.28-.06h0Z"/>
          <path class="cls-17" d="M93.27,221.84c.36,1.79,1.03,3.54,1.98,5.13-1.03-1.54-1.8-3.26-2.26-5.08-.05-.19,.26-.25,.28-.05h0Z"/>
          <path class="cls-17" d="M90.61,227.6c.45,1.09,1.13,2.11,1.92,3.02-.86-.85-1.62-1.81-2.18-2.9-.04-.07,0-.16,.06-.19,.08-.04,.17,0,.2,.08h0Z"/>
          <path class="cls-17" d="M100.33,203.52c.39,1.36,1.03,2.68,1.87,3.86-.91-1.12-1.65-2.39-2.14-3.78-.03-.08,.01-.16,.09-.18,.08-.03,.17,.02,.19,.11h0Z"/>
        </g>
        <g>
          <path class="cls-9" d="M188.36,194.17l1.78,4.39c.16,.4-.03,.85-.42,1.01h0c-.39,.16-.85-.03-1.01-.42l-1.78-4.39"/>
          <path class="cls-9" d="M179.96,186.04c-.82-2.02,.15-4.33,2.17-5.15h0c2.02-.82,4.32,.15,5.15,2.17l3.41,8.38c.33,.81-.06,1.73-.87,2.06l-4.39,1.79c-.81,.33-1.73-.06-2.06-.87l-3.41-8.38Z"/>
          <g>
            <path class="cls-9" d="M186.08,192.46c.14,.35-.03,.75-.38,.89h0c-.35,.14-.75-.03-.89-.38l-3.13-7.7c-.14-.35,.03-.75,.38-.89h0c.35-.14,.75,.03,.89,.38l3.13,7.7Z"/>
            <path class="cls-9" d="M188.64,191.42c.14,.35-.03,.75-.38,.89h0c-.35,.14-.75-.03-.89-.38l-3.13-7.7c-.14-.35,.03-.75,.38-.89h0c.35-.14,.75,.03,.89,.38l3.13,7.7Z"/>
          </g>
        </g>
        <g>
          <path class="cls-17" d="M61.24,227.87c6.79,9.99,13.72,20.09,22.4,28.55,.1,.07-.03,.25-.13,.15-6.69-6.21-12.21-13.54-17.64-20.83-1.79-2.46-3.54-4.94-5.26-7.44-.29-.4,.36-.86,.64-.43h0Z"/>
          <path class="cls-9" d="M64.95,233.93s-1.05-7.85,2.09-10.98c3.13-3.13,6.95-1.31,7.65-.15,.7,1.16-2.47,2.94-2.22,3.93,.25,.99,4.13,.36,6.04,1.39,1.92,1.02,3.41,5.59,3.16,6.36-.25,.76-4.41-.13-6.12,.27-1.71,.4-1.66,2.49-.42,3.03,1.23,.54,3.98-.82,5.63-.53,1.64,.29,4.16,7.1,4.08,8.46-.09,1.36-4.19-1.6-5.62-.88-1.08,.54,.05,2.2,1.82,2.97,1.77,.77,3.82,1.74,3.37,3.76-.45,2.02-.74,4.56-.66,5.06,0,0-6.7-.34-8.29-1.63-1.59-1.28-.99-4.01-1.89-5.36-.9-1.35-1.87-.64-2.03,.18-.17,.82,.82,3.53,.37,3.69-.44,.16-5.37-.83-5.77-3.3-.4-2.47,2.11-4.14,1.57-5.56-.55-1.42-2.44-.51-2.9,1.17-.46,1.68,.42,3.25-.34,3.49-.75,.24-6.09-2.73-6.16-4.64-.07-1.91,2.53-3.08,3.84-3.79,1.31-.71,1.86-2.78,.59-3.47-1.26-.69-3.5,.22-4.1,2.09-.61,1.87-1.71,2.59-2.12,2.43-.41-.17-3.21-5.88-2.39-8.56,.82-2.68,8.47-1.53,10.84,.6Z"/>
          <path class="cls-11" d="M68.32,238.54s5.37-7.5,12.62-6.9"/>
          <path class="cls-11" d="M67.73,237.47s1.36-7.3,8.57-9.95"/>
          <path class="cls-11" d="M66.65,236.47s-3.7,4.11-5.93,10.99"/>
          <path class="cls-11" d="M67.13,236.92s-3.94,6.58-3.81,12.07"/>
          <path class="cls-11" d="M66.18,235.66s-5.94-1.73-11.93,.65"/>
          <path class="cls-11" d="M65.6,234.87s-7.8-2.5-11.54-.11"/>
          <path class="cls-11" d="M65.9,235.02s.89-8.07,6.25-13.66"/>
          <path class="cls-11" d="M69.44,240.03s6.94-1.38,13.92,.81"/>
          <path class="cls-11" d="M70.28,241.16s9.22,.13,14.25,2.84"/>
          <path class="cls-11" d="M70.93,242.13s-2.31,3.49-2.07,10.56"/>
          <path class="cls-11" d="M75.17,247.32s-.71,4.71,.5,7.78"/>
          <path class="cls-11" d="M76.11,248.47s-.05,4.31,2.17,7.54"/>
          <path class="cls-11" d="M74.25,246.26s2.63-.2,5.65,.84"/>
          <path class="cls-11" d="M75.83,248.11s5.87,.62,8.37,4.1"/>
        </g>
        <g class="cls-15">
          <path class="cls-17" d="M276.11,91.92c-21.68,7.26-41.55,20.32-56.47,37.68-.05,.08-.18-.01-.12-.09,11.11-13.15,25.16-23.8,40.51-31.5,5.11-2.64,10.49-4.7,15.9-6.62,.15-.05,.31,.02,.36,.17,.05,.15-.03,.32-.18,.36h0Z"/>
          <path class="cls-8" d="M262.87,97.02s2.07,13.98-2.2,30.99c0,0-5.46-11.47,2.2-30.99Z"/>
          <path class="cls-8" d="M255.19,100.94s.58,13.62-5.18,29.59c0,0-4.06-11.5,5.18-29.59Z"/>
          <path class="cls-8" d="M246.85,106.03s.83,13.06-4.44,28.42c0,0-4.16-11.02,4.44-28.42Z"/>
          <path class="cls-8" d="M238.89,111.37s-.11,11.48-5.24,25.35c0,0-2.68-9.48,5.24-25.35Z"/>
          <path class="cls-8" d="M230.83,118.1s-.06,10.53-4.75,23.23c0,0-2.5-8.7,4.75-23.23Z"/>
          <path class="cls-8" d="M223.85,124.81s-.06,9.27-4.19,20.46c0,0-2.2-7.66,4.19-20.46Z"/>
          <path class="cls-8" d="M219.69,129.4s-4.72,10.22-15.1,21.24c0,0,3.5-12.98,15.1-21.24Z"/>
          <path class="cls-8" d="M262.53,96.94s-17.6-1.51-33.42-9.08c0,0,15.81-2.31,33.42,9.08Z"/>
          <path class="cls-8" d="M254.35,101.29s-16.81,.44-32.67-4.98c0,0,14.66-3.83,32.67,4.98Z"/>
          <path class="cls-8" d="M247.07,105.69s-16.21,2.88-32.42,0c0,0,13.6-5.82,32.42,0Z"/>
          <path class="cls-8" d="M238.51,111.6s-14.86,5.06-30.57,4.72c0,0,11.96-7.44,30.57-4.72Z"/>
          <path class="cls-8" d="M230.41,118.31s-12.18,4.84-24.96,4.79c0,0,9.86-6.95,24.96-4.79Z"/>
          <path class="cls-8" d="M223.23,125.33s-9.89,5-20.75,6.04c0,0,7.73-6.53,20.75-6.04Z"/>
        </g>
        <g class="cls-15">
          <path class="cls-17" d="M73.79,408.13c8.46-21.24,11.32-44.85,7.7-67.45-.02-.09,.13-.13,.14-.03,2.86,16.97,1.92,34.57-2.11,51.28-1.28,5.6-3.19,11.04-5.21,16.42-.05,.14-.22,.22-.36,.16-.15-.06-.22-.23-.16-.37h0Z"/>
          <path class="cls-8" d="M78.45,394.73s-12.01-7.45-22.24-21.69c0,0,12.28,3.24,22.24,21.69Z"/>
          <path class="cls-8" d="M80.41,386.33s-10.77-8.35-19.25-23.07c0,0,11.4,4.33,19.25,23.07Z"/>
          <path class="cls-8" d="M81.91,376.68s-10.51-7.8-18.83-21.74c0,0,11.1,3.94,18.83,21.74Z"/>
          <path class="cls-8" d="M82.97,367.16s-8.7-7.5-15.97-20.37c0,0,8.97,4.07,15.97,20.37Z"/>
          <path class="cls-8" d="M83.04,356.66s-8-6.85-14.67-18.62c0,0,8.26,3.71,14.67,18.62Z"/>
          <path class="cls-8" d="M82.42,346.99s-7.04-6.04-12.92-16.42c0,0,7.27,3.27,12.92,16.42Z"/>
          <path class="cls-8" d="M81.6,340.85s-4.75-10.2-6.47-25.24c0,0,7.65,11.05,6.47,25.24Z"/>
          <path class="cls-8" d="M78.73,394.52s12.52-12.46,28.52-19.65c0,0-8.45,13.57-28.52,19.65Z"/>
          <path class="cls-8" d="M80.69,385.47s10.52-13.12,24.9-21.72c0,0-6.54,13.66-24.9,21.72Z"/>
          <path class="cls-8" d="M82.03,377.07s8.27-14.24,20.93-24.76c0,0-4.34,14.14-20.93,24.76Z"/>
          <path class="cls-8" d="M83.04,366.71s5.73-14.61,16.13-26.39c0,0-2.05,13.93-16.13,26.39Z"/>
          <path class="cls-8" d="M83.15,356.2s4.17-12.42,12.46-22.15c0,0-1.06,12.01-12.46,22.15Z"/>
          <path class="cls-8" d="M82.43,346.18s2.57-10.78,8.79-19.74c0,0,0,10.12-8.79,19.74Z"/>
        </g>
      </g>
      <path class="cls-17" d="M47.46,202.55s80.42,34.64,120.02-23.17C217.07,106.97,126.75,71.94,151.63,0L0,144.51l47.46,58.04Z"/>
    </g>
  </g>
</svg>