<?xml version="1.0" encoding="UTF-8"?>
<svg id="_Слой_2" data-name="Слой 2" xmlns="http://www.w3.org/2000/svg" viewBox="0 0 70.7 66.91">
  <defs>
    <style>
      .cls-1 {
        opacity: .6;
      }

      .cls-2 {
        fill: #8af3e5;
      }
    </style>
  </defs>
  <g id="OBJECTS">
    <g class="cls-1">
      <path class="cls-2" d="M28.45,2.09c.51,.63-.65,.81-2.58,.41-1.93-.4-3.91-1.24-4.42-1.87-.51-.63,.65-.81,2.58-.41,1.93,.4,3.91,1.24,4.42,1.87Z"/>
      <path class="cls-2" d="M35.34,27.78c.51,.63-.65,.81-2.58,.41-1.93-.4-3.91-1.24-4.42-1.87-.51-.63,.65-.81,2.58-.41,1.93,.4,3.91,1.24,4.42,1.87Z"/>
      <path class="cls-2" d="M66.21,58.52c.51,.63-.65,.81-2.58,.41-1.93-.4-3.91-1.24-4.42-1.87-.51-.63,.65-.81,2.58-.41,1.93,.4,3.91,1.24,4.42,1.87Z"/>
      <path class="cls-2" d="M70.41,55.74c.51,.63-.65,.81-2.58,.41-1.93-.4-3.91-1.24-4.42-1.87-.51-.63,.65-.81,2.58-.41,1.93,.4,3.91,1.24,4.42,1.87Z"/>
      <path class="cls-2" d="M56.14,35.73c.51,.63-.65,.81-2.58,.41-1.93-.4-3.91-1.24-4.42-1.87-.51-.63,.65-.81,2.58-.41,1.93,.4,3.91,1.24,4.42,1.87Z"/>
      <path class="cls-2" d="M5.14,9.08c.51,.63-.19,.91-1.57,.62-1.37-.29-2.9-1.03-3.4-1.66-.51-.63,.19-.91,1.57-.62,1.37,.29,2.9,1.03,3.4,1.66Z"/>
      <path class="cls-2" d="M44.93,20.46c.51,.63-.19,.91-1.57,.62-1.37-.29-2.9-1.03-3.4-1.66-.51-.63,.19-.91,1.57-.62,1.37,.29,2.9,1.03,3.4,1.66Z"/>
      <path class="cls-2" d="M40.27,35.6c.51,.63-.19,.91-1.57,.62-1.37-.29-2.9-1.03-3.4-1.66-.51-.63,.19-.91,1.57-.62,1.37,.29,2.9,1.03,3.4,1.66Z"/>
      <path class="cls-2" d="M37.89,60.43c.51,.63-.19,.91-1.57,.62-1.37-.29-2.9-1.03-3.4-1.66-.51-.63,.19-.91,1.57-.62,1.37,.29,2.9,1.03,3.4,1.66Z"/>
      <path class="cls-2" d="M15.98,22.55c.51,.63-.19,.91-1.57,.62-1.37-.29-2.9-1.03-3.4-1.66-.51-.63,.19-.91,1.57-.62,1.37,.29,2.9,1.03,3.4,1.66Z"/>
      <path class="cls-2" d="M63.71,48.94c.51,.63-.19,.91-1.57,.62-1.37-.29-2.9-1.03-3.4-1.66-.51-.63,.19-.91,1.57-.62,1.37,.29,2.9,1.03,3.4,1.66Z"/>
      <path class="cls-2" d="M39.49,54.63c.51,.63-.19,.91-1.57,.62-1.37-.29-2.9-1.03-3.4-1.66-.51-.63,.19-.91,1.57-.62,1.37,.29,2.9,1.03,3.4,1.66Z"/>
      <path class="cls-2" d="M70.54,66.18c.51,.63-.19,.91-1.57,.62-1.37-.29-2.9-1.03-3.4-1.66-.51-.63,.19-.91,1.57-.62,1.37,.29,2.9,1.03,3.4,1.66Z"/>
      <path class="cls-2" d="M23.03,8.29c.6,.75-.68,.99-2.87,.53-2.19-.46-4.45-1.43-5.05-2.18-.6-.75,.68-.99,2.87-.53,2.19,.46,4.45,1.43,5.05,2.18Z"/>
      <path class="cls-2" d="M50.82,49.2c.6,.75-.68,.98-2.87,.53-2.19-.46-4.45-1.43-5.05-2.18-.6-.75,.68-.99,2.87-.53,2.19,.46,4.45,1.43,5.05,2.18Z"/>
      <path class="cls-2" d="M25.33,33.13c.6,.75-.68,.98-2.87,.53-2.19-.46-4.45-1.43-5.05-2.18-.6-.75,.68-.99,2.87-.53,2.19,.46,4.45,1.43,5.05,2.18Z"/>
      <path class="cls-2" d="M29.26,19.26c.6,.75-.68,.99-2.87,.53-2.19-.46-4.45-1.43-5.05-2.18-.6-.75,.68-.99,2.87-.53,2.19,.46,4.45,1.43,5.05,2.18Z"/>
      <path class="cls-2" d="M58.44,41.63c.6,.75-.68,.99-2.87,.53-2.19-.46-4.45-1.43-5.05-2.18-.6-.75,.68-.98,2.87-.53,2.19,.46,4.45,1.43,5.05,2.18Z"/>
      <path class="cls-2" d="M54.71,58.5c.6,.75-.68,.98-2.87,.53-2.19-.46-4.45-1.43-5.05-2.18-.6-.75,.68-.99,2.87-.53,2.19,.46,4.45,1.43,5.05,2.18Z"/>
      <path class="cls-2" d="M34.22,43.32c.6,.75-.68,.99-2.87,.53s-4.45-1.43-5.05-2.18c-.6-.75,.68-.99,2.87-.53,2.19,.46,4.45,1.43,5.05,2.18Z"/>
      <path class="cls-2" d="M55.08,30.03c.6,.75-.68,.99-2.87,.53-2.19-.46-4.45-1.43-5.05-2.18-.6-.75,.68-.99,2.87-.53,2.19,.46,4.45,1.43,5.05,2.18Z"/>
    </g>
  </g>
</svg>