<?xml version="1.0" encoding="UTF-8"?>
<svg id="_Слой_2" data-name="Слой 2" xmlns="http://www.w3.org/2000/svg" viewBox="0 0 55.43 55.43">
  <defs>
    <style>
      .cls-1 {
        stroke-width: 1.5px;
      }

      .cls-1, .cls-2, .cls-3 {
        fill: none;
        stroke: #8af3e5;
        stroke-linecap: round;
        stroke-linejoin: round;
      }

      .cls-3 {
        stroke-width: .5px;
      }
    </style>
  </defs>
  <g id="OBJECTS">
    <g>
      <g>
        <g>
          <g>
            <line class="cls-2" x1="21.17" y1="11.78" x2="18.26" y2="4.72"/>
            <line class="cls-2" x1="37.17" y1="50.71" x2="34.27" y2="43.65"/>
          </g>
          <g>
            <line class="cls-2" x1="11.78" y1="34.27" x2="4.72" y2="37.17"/>
            <line class="cls-2" x1="50.71" y1="18.26" x2="43.65" y2="21.17"/>
          </g>
        </g>
        <g>
          <g>
            <line class="cls-2" x1="11.82" y1="21.08" x2="4.77" y2="18.14"/>
            <line class="cls-2" x1="50.66" y1="37.3" x2="43.62" y2="34.35"/>
          </g>
          <g>
            <line class="cls-2" x1="21.08" y1="43.62" x2="18.14" y2="50.66"/>
            <line class="cls-2" x1="37.29" y1="4.77" x2="34.35" y2="11.82"/>
          </g>
        </g>
      </g>
      <g>
        <g>
          <path class="cls-1" d="M44.86,27.72c0,9.47-7.67,17.14-17.14,17.14s-17.14-7.67-17.14-17.14S18.25,10.57,27.72,10.57s17.14,7.67,17.14,17.14Z"/>
          <path class="cls-3" d="M29.75,20.14c0,2.85-2.31,5.17-5.17,5.17s-5.17-2.31-5.17-5.17,2.31-5.17,5.17-5.17,5.17,2.31,5.17,5.17Z"/>
          <path class="cls-3" d="M21.41,30.29c0,1.24-1,2.24-2.24,2.24s-2.24-1-2.24-2.24,1-2.24,2.24-2.24,2.24,1,2.24,2.24Z"/>
        </g>
        <g>
          <g>
            <line class="cls-2" x1="27.72" y1="10.49" x2="27.72" y2=".5"/>
            <line class="cls-2" x1="27.72" y1="54.93" x2="27.72" y2="44.95"/>
          </g>
          <g>
            <line class="cls-2" x1="10.49" y1="27.72" x2=".5" y2="27.72"/>
            <line class="cls-2" x1="54.93" y1="27.72" x2="44.95" y2="27.72"/>
          </g>
        </g>
        <g>
          <g>
            <line class="cls-2" x1="15.53" y1="15.53" x2="8.47" y2="8.47"/>
            <line class="cls-2" x1="46.96" y1="46.96" x2="39.9" y2="39.9"/>
          </g>
          <g>
            <line class="cls-2" x1="15.53" y1="39.9" x2="8.47" y2="46.96"/>
            <line class="cls-2" x1="46.96" y1="8.47" x2="39.9" y2="15.53"/>
          </g>
        </g>
      </g>
    </g>
  </g>
</svg>