<?xml version="1.0" encoding="UTF-8"?>
<svg id="_Слой_2" data-name="Слой 2" xmlns="http://www.w3.org/2000/svg" viewBox="0 0 46.08 43.04">
  <defs>
    <style>
      .cls-1 {
        fill: none;
        stroke: #8af3e5;
        stroke-linecap: round;
        stroke-linejoin: round;
        stroke-width: .29px;
      }

      .cls-2 {
        fill: #8af3e5;
      }
    </style>
  </defs>
  <g id="OBJECTS">
    <g>
      <path class="cls-2" d="M46.02,.57c-7.19,13.02-17.86,24.2-30.72,31.72-.11,.06-.22-.12-.1-.18,9.52-5.7,17.77-13.53,24.28-22.5,2.21-2.97,4.07-6.17,5.86-9.4,.22-.45,.94-.1,.68,.36h0Z"/>
      <path class="cls-1" d="M40.81,8.18s-8.69-2.87-20.01-2.03c0,0,6.71,4.75,20.01,2.03Z"/>
      <path class="cls-1" d="M37.45,12.65s-8.62-1.88-19.45,.03c0,0,6.89,3.86,19.45-.03Z"/>
      <path class="cls-1" d="M33.28,17.4s-8.24-1.98-18.62-.31c0,0,6.57,3.87,18.62,.31Z"/>
      <path class="cls-1" d="M29,21.89s-7.34-1.2-16.75,.53c0,0,5.75,2.76,16.75-.53Z"/>
      <path class="cls-1" d="M23.81,26.28s-6.72-1.13-15.34,.46c0,0,5.27,2.56,15.34-.46Z"/>
      <path class="cls-1" d="M18.76,29.99s-5.92-.99-13.52,.41c0,0,4.64,2.25,13.52-.41Z"/>
      <path class="cls-1" d="M15.37,32.14s-7.04,1.88-15.22,7.28c0,0,8.67-.79,15.22-7.28Z"/>
      <path class="cls-1" d="M40.82,8.41s-.99,11.4,2.09,22.33c0,0,3.22-9.83-2.09-22.33Z"/>
      <path class="cls-1" d="M37.14,13.14s-2.14,10.67-.44,21.39c0,0,4.07-8.93,.44-21.39Z"/>
      <path class="cls-1" d="M33.53,17.3s-3.64,10.02-3.6,20.68c0,0,5.22-8.03,3.6-20.68Z"/>
      <path class="cls-1" d="M28.81,22.1s-4.87,8.92-6.4,18.97c0,0,6.07-6.81,6.4-18.97Z"/>
      <path class="cls-1" d="M23.63,26.53s-4.44,7.23-5.82,15.39c0,0,5.52-5.52,5.82-15.39Z"/>
      <path class="cls-1" d="M18.36,30.33s-4.28,5.76-6.15,12.57c0,0,5.02-4.21,6.15-12.57Z"/>
    </g>
  </g>
</svg>