<?xml version="1.0" encoding="UTF-8"?>
<svg id="_Слой_2" data-name="Слой 2" xmlns="http://www.w3.org/2000/svg" viewBox="0 0 143.63 170.06">
  <defs>
    <style>
      .cls-1 {
        fill: none;
        stroke: #8af3e5;
        stroke-linecap: round;
        stroke-linejoin: round;
        stroke-width: .48px;
      }

      .cls-2 {
        opacity: .28;
      }

      .cls-3 {
        fill: #8af3e5;
      }
    </style>
  </defs>
  <g id="OBJECTS">
    <g class="cls-2">
      <path class="cls-3" d="M.29,168.88s2.06-1.34,5.67-3.69c1.8-1.17,4-2.6,6.51-4.24,1.28-.79,2.53-1.78,3.89-2.76,1.35-.99,2.77-2.04,4.25-3.13,1.48-1.09,3.03-2.23,4.62-3.4,1.6-1.17,3.14-2.54,4.78-3.86,1.63-1.34,3.31-2.72,5.02-4.12,.85-.71,1.72-1.42,2.59-2.14,.84-.76,1.68-1.53,2.53-2.3,1.7-1.55,3.44-3.13,5.19-4.72,.88-.8,1.76-1.6,2.65-2.41,.85-.85,1.7-1.7,2.56-2.55,3.4-3.44,6.98-6.82,10.23-10.51,1.66-1.81,3.32-3.62,4.98-5.43,1.62-1.83,3.17-3.72,4.74-5.56,.78-.92,1.56-1.84,2.33-2.76l1.16-1.37,1.1-1.4c1.46-1.87,2.91-3.71,4.33-5.53,1.45-1.79,2.75-3.65,4.07-5.44,1.3-1.8,2.6-3.54,3.81-5.27,2.36-3.51,4.68-6.76,6.62-9.9,.99-1.56,1.95-3.04,2.83-4.47,.86-1.44,1.68-2.81,2.45-4.1,1.53-2.57,2.79-4.87,3.83-6.75,1.01-1.9,1.81-3.39,2.32-4.42,.53-1.03,.78-1.58,.78-1.58,.04-.08,.14-.12,.22-.08,.08,.04,.12,.14,.08,.22,0,0-.25,.56-.77,1.6-.5,1.04-1.29,2.54-2.29,4.45-1.03,1.89-2.28,4.2-3.8,6.78-.76,1.29-1.58,2.67-2.43,4.12-.87,1.44-1.83,2.93-2.81,4.5-1.92,3.16-4.23,6.43-6.57,9.96-1.2,1.74-2.5,3.49-3.79,5.3-1.3,1.8-2.6,3.67-4.04,5.47-1.41,1.83-2.85,3.68-4.3,5.56l-1.1,1.41-1.15,1.38c-.77,.92-1.54,1.85-2.32,2.78-1.56,1.85-3.1,3.76-4.72,5.6-1.65,1.82-3.3,3.64-4.96,5.47-3.24,3.72-6.8,7.13-10.19,10.6-.85,.86-1.7,1.72-2.55,2.58-.88,.81-1.76,1.62-2.64,2.43-1.75,1.61-3.48,3.2-5.18,4.77-.85,.78-1.69,1.56-2.53,2.33-.87,.73-1.73,1.45-2.59,2.16-1.71,1.42-3.38,2.81-5.01,4.17-1.64,1.34-3.18,2.72-4.78,3.91-1.6,1.19-3.15,2.34-4.63,3.45-1.49,1.11-2.91,2.17-4.26,3.17-1.36,1-2.61,2-3.89,2.79-2.5,1.65-4.69,3.09-6.48,4.28-3.6,2.37-5.65,3.73-5.65,3.73-.3,.2-.69,.11-.89-.18-.19-.29-.11-.69,.18-.89h0Z"/>
      <path class="cls-1" d="M27.09,150.52s-12.01-30.03-11.49-70.18c0,0,18.23,22.64,11.49,70.18Z"/>
      <path class="cls-1" d="M42.12,137.71s-8.5-30.02-4.13-68.65c0,0,15.12,23.47,4.13,68.65Z"/>
      <path class="cls-1" d="M58,121.96s-8.76-28.65-5.15-65.64c0,0,15.1,22.34,5.15,65.64Z"/>
      <path class="cls-1" d="M72.89,105.88s-5.84-25.63-1.75-59.23c0,0,10.99,19.69,1.75,59.23Z"/>
      <path class="cls-1" d="M87.28,86.61s-5.44-23.48-1.72-54.24c0,0,10.18,18.05,1.72,54.24Z"/>
      <path class="cls-1" d="M99.28,67.97s-4.77-20.69-1.49-47.79c0,0,8.95,15.9,1.49,47.79Z"/>
      <path class="cls-1" d="M106.11,55.54S111.22,30.29,128.48,.24c0,0-.92,30.77-22.37,55.3Z"/>
      <path class="cls-1" d="M27.89,150.51s40-5.95,79.24,2.54c0,0-34,13.51-79.24-2.54Z"/>
      <path class="cls-1" d="M43.8,136.5s37.2-9.87,75.39-6.2c0,0-30.62,16.29-75.39,6.2Z"/>
      <path class="cls-1" d="M57.7,122.85s34.58-15.01,72.2-17.18c0,0-27.2,20.16-72.2,17.18Z"/>
      <path class="cls-1" d="M73.62,105.14s30.41-19.13,65.57-26.69c0,0-22.7,22.89-65.57,26.69Z"/>
      <path class="cls-1" d="M88.11,85.92s24.56-17.23,53.05-23.88c0,0-18.28,20.69-53.05,23.88Z"/>
      <path class="cls-1" d="M100.39,66.49s19.39-16.36,43.01-24.43c0,0-13.76,18.63-43.01,24.43Z"/>
    </g>
  </g>
</svg>